C:\Users\israe\Dropbox\PhDWork\ExperimentalData\subject7\145\P7S145W14_filtered35.mot
nRows=10
nColumns=28

name C:\Users\israe\Dropbox\PhDWork\ExperimentalData\subject7\145\P7S145W14_filtered35.mot
datacolumns 28
datarows 10
range 1.5150000000 1.5240000000
endheader
time	ground_force_1_vx	ground_force_1_vy	ground_force_1_vz	ground_force_1_px	ground_force_1_py	ground_force_1_pz	ground_moment_1_mx	ground_moment_1_my	ground_moment_1_mz	ground_force_2_vx	ground_force_2_vy	ground_force_2_vz	ground_force_2_px	ground_force_2_py	ground_force_2_pz	ground_moment_2_mx	ground_moment_2_my	ground_moment_2_mz	ground_force_3_vx	ground_force_3_vy	ground_force_3_vz	ground_force_3_px	ground_force_3_py	ground_force_3_pz	ground_moment_3_mx	ground_moment_3_my	ground_moment_3_mz
        1.5150000000	        1.0345793900	       11.1958020787	        2.0328291669	        0.1988394910	        0.0000558755	       -0.3004071320	       -0.6221816050	       -0.0621503497	        0.3419497389	        0.0000000000	        0.0000000000	        0.0000000000	        0.2029003487	       -0.0000795827	        0.4543649445	        0.0000000000	        0.0000000000	        0.0000000000	       -0.0000000000	        0.0000000000	        0.0000000000	        0.2076431971	        0.0000770316	        1.3583900146	        0.0000000000	       -0.0000000000	        0.0000000000	
        1.5160000000	        0.7381145110	        8.0807807875	        1.4895855789	        0.1988394910	        0.0000558755	       -0.3004071320	       -0.4496091417	       -0.0479432382	        0.2457971977	        0.0000000000	        0.0000000000	        0.0000000000	        0.2029003487	       -0.0000795827	        0.4543649445	        0.0000000000	        0.0000000000	        0.0000000000	       -0.0000000000	        0.0000000000	        0.0000000000	        0.2076431971	        0.0000770316	        1.3583900146	        0.0000000000	       -0.0000000000	        0.0000000000	
        1.5170000000	        0.4906486271	        5.4602173372	        1.0275375547	        0.1988394910	        0.0000558755	       -0.3004071320	       -0.3043085261	       -0.0352963145	        0.1651351205	        0.0000000000	        0.0000000000	       -0.0000000000	        0.2029003487	       -0.0000795827	        0.4543649445	        0.0000000000	       -0.0000000000	        0.0000000000	       -0.0000000000	        0.0000000000	        0.0000000000	        0.2076431971	        0.0000770316	        1.3583900146	        0.0000000000	       -0.0000000000	        0.0000000000	
        1.5180000000	        0.2919473649	        3.3394770443	        0.6495543345	        0.1988394910	        0.0000558755	       -0.3004071320	       -0.1866235233	       -0.0245009105	        0.1000416276	        0.0000000000	        0.0000000000	       -0.0000000000	        0.2029003487	       -0.0000795827	        0.4543649445	        0.0000000000	       -0.0000000000	        0.0000000000	       -0.0000000000	        0.0000000000	        0.0000000000	        0.2076431971	        0.0000770316	        1.3583900146	        0.0000000000	       -0.0000000000	        0.0000000000	
        1.5190000000	        0.1387953004	        1.6908744246	        0.3523143798	        0.1988394910	        0.0000558755	       -0.3004071320	       -0.0950566087	       -0.0156387013	        0.0495939647	        0.0000000000	        0.0000000000	       -0.0000000000	        0.2029003487	       -0.0000795827	        0.4543649445	        0.0000000000	       -0.0000000000	        0.0000000000	       -0.0000000000	        0.0000000000	        0.0000000000	        0.2076431971	        0.0000770316	        1.3583900146	        0.0000000000	       -0.0000000000	        0.0000000000	
        1.5200000000	        0.0261553666	        0.4660283742	        0.1285027912	        0.1988394910	        0.0000558755	       -0.3004071320	       -0.0269544751	       -0.0086439533	        0.0122479406	        0.0000000000	        0.0000000000	       -0.0000000000	        0.2029003487	       -0.0000795827	        0.4543649445	        0.0000000000	       -0.0000000000	        0.0000000000	       -0.0000000000	        0.0000000000	        0.0000000000	        0.2076431971	        0.0000770316	        1.3583900146	        0.0000000000	       -0.0000000000	        0.0000000000	
        1.5210000000	       -0.0519301082	        0.0000000000	       -0.0314470671	        0.1988394910	        0.0000558755	       -0.3004071320	        0.0209542902	       -0.0033550101	       -0.0138656077	        0.0000000000	        0.0000000000	       -0.0000000000	        0.2029003487	       -0.0000795827	        0.4543649445	        0.0000000000	       -0.0000000000	        0.0000000000	       -0.0000000000	        0.0000000000	        0.0000000000	        0.2076431971	        0.0000770316	        1.3583900146	        0.0000000000	       -0.0000000000	        0.0000000000	
        1.5220000000	       -0.1016701884	        0.0000000000	       -0.1380304371	        0.1988394910	        0.0000558755	       -0.3004071320	        0.0521555557	        0.0004447535	       -0.0307192427	        0.0000000000	        0.0000000000	       -0.0000000000	        0.2029003487	       -0.0000795827	        0.4543649445	        0.0000000000	       -0.0000000000	        0.0000000000	       -0.0000000000	        0.0000000000	        0.0000000000	        0.2076431971	        0.0000770316	        1.3583900146	        0.0000000000	       -0.0000000000	        0.0000000000	
        1.5230000000	       -0.1290553944	        0.0000000000	       -0.2017149873	        0.1988394910	        0.0000558755	       -0.3004071320	        0.0700622568	        0.0029956915	       -0.0402320700	        0.0000000000	        0.0000000000	       -0.0000000000	        0.2029003487	       -0.0000795827	        0.4543649445	        0.0000000000	       -0.0000000000	        0.0000000000	       -0.0000000000	        0.0000000000	        0.0000000000	        0.2076431971	        0.0000770316	        1.3583900146	        0.0000000000	       -0.0000000000	        0.0000000000	
        1.5240000000	       -0.1395524656	        0.0000000000	       -0.2322936036	        0.1988394910	        0.0000558755	       -0.3004071320	        0.0778239223	        0.0045391980	       -0.0441666339	        0.0000000000	        0.0000000000	       -0.0000000000	        0.2029003487	       -0.0000795827	        0.4543649445	        0.0000000000	       -0.0000000000	        0.0000000000	       -0.0000000000	        0.0000000000	        0.0000000000	        0.2076431971	        0.0000770316	        1.3583900146	        0.0000000000	        0.0000000000	       -0.0000000000	
